<?xml version="1.0" encoding="UTF-8" standalone="no"?>
<svg
   version="1.1"
   id="Layer_1"
   x="0px"
   y="0px"
   width="100%"
   viewBox="0 0 1254 1254"
   enable-background="new 0 0 1254 1254"
   xml:space="preserve"
   sodipodi:docname="muhradio.svg"
   inkscape:version="1.4.3 (0d15f75042, 2025-12-25)"
   xmlns:inkscape="http://www.inkscape.org/namespaces/inkscape"
   xmlns:sodipodi="http://sodipodi.sourceforge.net/DTD/sodipodi-0.dtd"
   xmlns="http://www.w3.org/2000/svg"
   xmlns:svg="http://www.w3.org/2000/svg"><defs
   id="defs312" /><sodipodi:namedview
   id="namedview312"
   pagecolor="#ffffff"
   bordercolor="#000000"
   borderopacity="0.25"
   inkscape:showpageshadow="2"
   inkscape:pageopacity="0.0"
   inkscape:pagecheckerboard="0"
   inkscape:deskcolor="#d1d1d1"
   inkscape:zoom="0.37892803"
   inkscape:cx="347.03159"
   inkscape:cy="869.55825"
   inkscape:window-width="1920"
   inkscape:window-height="1173"
   inkscape:window-x="0"
   inkscape:window-y="27"
   inkscape:window-maximized="1"
   inkscape:current-layer="Layer_1" />



















<path
   fill="#212121"
   opacity="1"
   stroke="none"
   d="m 542.09046,702.19457 c -17.8197,-19.57007 -25.61768,-42.16937 -21.71228,-68.57123 0.19794,-1.33801 -1.21686,-3.73138 -2.49908,-4.34838 -17.35218,-8.34998 -34.86304,-16.36951 -52.22776,-24.69373 -8.68136,-4.16162 -17.1828,-8.70624 -25.68744,-13.22473 -2.96102,-1.57324 -4.66436,-1.54968 -6.85925,1.63782 -9.03992,13.12848 -21.90448,20.02783 -37.39789,23.54431 -13.00979,2.95276 -24.44696,-0.52631 -35.33484,-6.23572 -31.28775,-16.40692 -36.21685,-53.76569 -22.11328,-80.06519 11.61057,-21.65057 41.51355,-31.94516 63.13575,-26.00717 5.41506,1.48712 11.09353,2.74881 15.91625,5.43375 4.06467,2.26294 7.11631,6.38708 10.52488,9.77933 12.36041,12.30154 17.14422,27.37585 16.40146,44.54769 -0.0648,1.49872 0.82943,3.88459 1.98028,4.46406 18.85202,9.49243 37.80762,18.7796 56.76114,28.06976 8.36029,4.09784 16.76801,8.09912 25.41229,12.26868 14.87921,-26.50892 36.69928,-42.4795 67.32947,-44.55518 30.56891,-2.07159 53.88941,11.34515 72.51563,35.36438 1.07245,-0.4967 2.41473,-0.99426 3.63519,-1.70203 28.09289,-16.29016 56.12347,-32.68908 84.31323,-48.80969 3.75983,-2.15015 3.83221,-4.48102 3.27789,-8.11441 -2.10443,-13.79413 -0.21881,-26.5466 6.39093,-39.46533 7.76233,-15.17172 19.72577,-23.50864 35.16974,-27.55734 15.28504,-4.00712 30.07251,-1.74601 43.98017,6.93444 0.33178,0.15183 0.32763,0.19318 0.32763,0.19318 2.92975,2.36691 5.85956,4.73383 9.0658,7.29932 1.01898,1.02652 1.76147,1.85446 2.90027,3.08581 0.73077,0.57739 1.06512,0.75138 1.39953,0.92536 0,0 -0.0527,-0.0298 0.0107,0.35092 1.641,2.53955 3.21851,4.69845 4.79603,6.85736 0,0 0.17932,-0.019 0.19897,0.25754 1.71491,4.39682 3.75983,8.41137 5.04352,12.65609 4.98376,16.47931 2.08343,32.01166 -6.1861,46.78806 0,0 0.0909,0.0598 -0.1369,0.19397 -0.74152,1.03479 -1.25525,1.93524 -1.76904,2.83575 0,0 0.0618,0.0145 -0.20179,0.14472 -0.43798,0.69501 -0.6123,1.25976 -0.78662,1.82458 0,0 0.0317,-0.0422 -0.32562,0.0391 -3.46167,3.35382 -6.56604,6.6264 -9.67047,9.89892 6e-5,6e-5 -0.0144,0.0236 -0.27692,0.053 -0.41607,0.33575 -0.56964,0.64209 -0.7232,0.94836 0,0 -0.0137,-0.0427 -0.39014,-0.0524 -6.56457,3.1889 -12.44604,7.65155 -19.02301,9.24731 -7.24347,1.75739 -15.28699,1.95801 -22.68603,0.8537 -7.706,-1.15009 -15.05878,-4.66681 -22.56604,-7.14874 0,0 -0.10834,-0.078 -0.20624,-0.34986 -1.03565,-0.70941 -1.97333,-1.14703 -2.91101,-1.58471 0,0 0.0133,-0.0643 -0.0499,-0.39283 -1.38,-1.4577 -2.69678,-2.58673 -4.01361,-3.71582 -0.1358,-0.25006 -0.32275,-0.45288 -0.94891,-0.94409 -0.9524,-0.52057 -1.51679,-0.70563 -2.08124,-0.89068 0,0 0.066,0.001 0.0351,-0.38056 -1.36248,-1.29571 -3.31707,-3.30163 -3.92865,-2.95282 -5.54223,3.16107 -10.84973,6.73377 -16.22601,10.18585 0,0 -0.10602,-0.0762 -0.52014,-0.0813 -2.47485,1.50946 -4.53552,3.02399 -6.59619,4.53858 0,0 0.0584,-0.14319 -0.27527,-0.3324 -2.42529,1.16944 -4.51703,2.52808 -6.60871,3.88678 0,0 -0.13879,-0.19867 -0.591,-0.12408 -8.0968,4.73022 -15.74133,9.38586 -23.38592,14.04144 0,0 -0.14502,-0.007 -0.5019,-0.0153 -2.40832,1.36731 -4.45977,2.74323 -6.51123,4.1192 0,0 -0.0726,-0.0131 -0.44787,-0.0342 -4.42932,2.36353 -8.48334,4.74823 -12.53742,7.13294 0,0 0.004,0.0195 -0.27264,0.0532 -0.4364,0.32629 -0.59577,0.61902 -0.75513,0.91168 0,0 -0.033,-0.0469 -0.41845,-0.0762 -2.46601,1.49347 -4.5467,3.01623 -6.62732,4.539 -2.37555,1.45404 -4.75116,2.90808 -7.42481,5.00256 -0.19476,3.06616 -0.0485,5.49097 0.004,7.91773 0.23352,10.711 1.98291,21.68591 0.21179,32.05786 -1.68555,9.87134 -7.05768,19.1131 -10.80896,28.63165 0,0 0.0408,0.0497 -0.22016,0.16925 -0.74707,1.02466 -1.23321,1.92975 -1.71929,2.8349 0,0 0.0624,0.0456 -0.27808,0.1546 -1.3128,1.35523 -2.28516,2.60132 -3.25745,3.84748 -0.71838,0.82757 -1.43676,1.65515 -2.54547,2.92206 -1.57257,1.95391 -2.75494,3.46856 -3.93725,4.98321 0,0 -0.0477,0.0361 -0.32471,0.0258 -0.75104,0.35437 -1.22498,0.71893 -1.69885,1.0835 -0.87006,0.70953 -1.74012,1.419 -3.07471,2.47265 -0.9364,0.70813 -1.40814,1.07215 -1.87994,1.43616 -3.07074,2.12018 -6.14142,4.24036 -9.78553,6.70227 -2.94079,1.6737 -5.30816,3.0058 -7.67559,4.33789 0,-6e-5 0.0576,-0.18445 -0.41443,-0.14587 -1.67755,0.72351 -2.88312,1.40838 -4.08863,2.09326 0,0 -0.0571,0.0249 -0.2583,-0.0549 -0.20123,-0.0798 -0.64465,0.12585 -0.64465,0.12585 0,0 0.0441,-0.0618 -0.0748,-0.29285 -0.49408,-0.0615 -0.86926,0.1081 -1.24445,0.27765 -0.38861,0.0738 -0.77722,0.14771 -1.70806,0.27948 -0.8523,0.20459 -1.099,0.42298 -1.28217,0.71314 -0.44147,0.10553 -0.883,0.21112 -1.91473,0.45111 -1.31421,0.37787 -2.03809,0.62134 -2.76197,0.86487 -0.18744,0.0159 -0.37481,0.0317 -1.20861,0.12732 -2.66571,0.56298 -4.685,1.04602 -6.19819,1.40802 -0.26556,3.92529 -0.71228,7.14611 -0.66095,10.359 0.21534,13.48371 0.5384,26.96643 0.9574,40.44526 0.0389,1.25079 0.72571,3.20678 1.63336,3.58563 5.31708,2.21924 10.78943,4.06653 16.20941,6.03924 0,0 0.11176,0.0124 0.14942,0.22846 0.35693,0.36102 0.67621,0.5061 0.99554,0.65112 0,0 0.0447,-0.0685 0.16309,0.24097 0.68481,0.46551 1.25116,0.62158 1.81757,0.77759 0,0 0.016,-0.0284 0.0668,0.29785 0.3656,0.60803 0.6803,0.88983 0.99499,1.17169 0.0512,0.19635 0.16694,0.341 0.72651,0.70636 0.99035,0.45026 1.60156,0.62811 2.21276,0.80597 0,0 -0.0264,0.004 0.008,0.32879 0.6889,0.77472 1.34344,1.22443 1.99799,1.67414 0,0 0.0417,-0.002 0.0996,0.29761 0.35914,0.59606 0.66034,0.89282 0.96155,1.18957 0.35852,0.4115 0.71698,0.823 1.46302,1.57855 0.75744,0.53302 1.12738,0.72211 1.49731,0.9112 0,0 10e-4,-0.0391 0.12921,0.28692 0.53204,0.4596 0.93622,0.5932 1.34039,0.72681 0.10334,0.61713 0.003,1.38928 0.33918,1.82892 13.0639,17.10913 15.57446,35.862 8.89154,56.54645 0.0611,0.46563 0.21289,0.49115 -0.12683,0.54174 -1.44672,2.05542 -2.55378,4.06019 -3.86182,6.27894 -0.68512,1.06036 -1.16919,1.90679 -1.82257,2.97436 -0.45215,0.69806 -0.73505,1.17511 -1.01788,1.6521 0,0 0.0525,0.0316 -0.19056,0.20428 -1.06585,1.39954 -1.88873,2.62641 -2.71167,3.85328 0,0 0.0623,0.0577 -0.27087,0.1513 -2.12946,2.01422 -3.92566,3.93476 -5.72192,5.85535 6e-5,6e-5 0.0376,0.0429 -0.21228,0.0896 -0.4289,0.33533 -0.60797,0.62378 -0.78705,0.91229 0,0 0.0618,0.0188 -0.28546,0.043 -1.21308,0.66083 -2.0788,1.29749 -2.94452,1.93414 -0.20117,0.0369 -0.37769,0.12397 -0.8664,0.58112 -0.52063,0.68603 -0.7044,1.05206 -0.88818,1.41809 6e-5,0 0.002,-0.0542 -0.3717,-0.0753 -2.1272,1.01825 -3.88099,2.05756 -5.63477,3.09681 0,0 0.0383,0.0458 -0.25262,0.0387 -0.77796,0.32306 -1.26502,0.65326 -1.75214,0.98352 6e-5,0 0.0571,0.0164 -0.33649,0.0217 -7.4422,1.44806 -14.49084,2.89087 -21.53949,4.33368 -4.09363,-0.0715 -8.18725,-0.14288 -12.85656,-0.56745 -4.11945,-1.5166 -7.66333,-2.68005 -11.20716,-3.84344 0,0 -0.0103,0.0597 -0.2124,-0.19086 -1.05267,-0.43505 -1.9032,-0.61962 -2.75372,-0.8042 0,0 -0.0226,0.0643 -0.0527,-0.2254 -0.34668,-0.44549 -0.66321,-0.60126 -0.97979,-0.75708 0,0 0.0206,0.0552 -0.15705,-0.22894 -1.72015,-1.12616 -3.26257,-1.96814 -4.80499,-2.81006 0,-6e-5 -0.0425,0.0386 -0.15973,-0.22955 -0.68286,-0.43048 -1.24859,-0.59284 -1.81433,-0.75519 0,6e-5 -0.0549,0.0485 -0.0691,-0.29419 -0.63916,-0.88953 -1.2641,-1.43634 -1.88904,-1.98316 -0.84644,-0.78808 -1.69287,-1.57617 -2.95984,-2.74926 -0.9873,-0.9209 -1.5542,-1.45679 -2.12103,-1.99268 -0.71533,-0.87744 -1.43073,-1.75494 -2.54303,-3.09534 -1.40912,-1.59478 -2.4212,-2.7265 -3.43335,-3.85827 0,0 0.005,0.0575 -0.0436,-0.32178 -12.35834,-20.03418 -11.54816,-39.94147 -1.2168,-60.04407 1.11292,-2.16552 2.11597,-4.38751 3.16992,-6.58331 0.26484,-0.0649 0.52973,-0.12988 1.38483,-0.11676 0.35419,0.17889 0.11817,0.27985 -0.11786,0.38074 0.0795,-0.25244 0.15912,-0.50495 0.23865,-0.75739 0.0682,-0.22766 0.13648,-0.45538 0.67328,-1.03467 2.01422,-1.9909 3.55981,-3.63031 5.10541,-5.26977 0,0 -0.082,-0.0109 0.21936,-0.0931 1.7265,-1.3501 3.15161,-2.61804 4.57672,-3.88605 0,0 0.13025,0.0117 0.48626,-0.0761 6.55701,-2.82855 12.81702,-5.44787 18.91065,-8.4096 1.26495,-0.61481 2.70764,-2.4906 2.72339,-3.80146 0.19385,-16.13336 0.20068,-32.2705 0.0189,-48.40399 -0.0137,-1.21338 -1.60706,-3.07764 -2.85211,-3.49921 -7.6886,-2.60333 -15.48792,-4.87963 -23.25043,-7.26464 0,0 -0.1023,0.0713 -0.25849,-0.15021 -2.35852,-1.39496 -4.56085,-2.56848 -6.76312,-3.74194 0,0 -0.0525,0.0266 -0.20025,-0.24402 -4.68781,-3.74402 -9.22797,-7.21747 -13.76813,-10.69098 0,0 -0.0206,-0.01 -0.0831,-0.25763 -0.35773,-0.41071 -0.65302,-0.57355 -0.9483,-0.73645 0,0 0.25622,0.0391 0.29034,-0.0859 z"
   id="path20"
   style="fill:#cc0000" />

























































































































































































































































<g
   id="g312"
   transform="translate(-28,44)"
   style="fill:#cc0000"><path
     fill="#212121"
     opacity="1"
     stroke="none"
     d="m 662.48389,364.31674 c -56.36597,-10.6962 -105.27118,3.05142 -146.81153,42.27237 -7.10455,6.70789 -16.62582,4.64557 -20.24502,-4.3356 -1.24964,-3.10092 1.58188,-11.15744 5.05023,-13.89615 4.33078,-3.41977 8.65146,-6.87305 13.18466,-10.01114 9.05383,-6.26739 17.86719,-13.01742 27.45728,-18.34985 30.75641,-17.10178 63.98156,-24.56619 99.03466,-21.97983 44.71991,3.29956 83.37403,20.70416 115.48096,52.25723 3.49573,3.43543 5.26337,7.38211 3.8407,12.16477 -1.28223,4.31073 -4.40521,6.96377 -8.82123,7.98675 -4.41089,1.02176 -7.74774,-0.98385 -10.73804,-3.89148 -10.80682,-10.50793 -22.39013,-20.23074 -36.09478,-26.48785 -13.25727,-6.0528 -27.25452,-10.48489 -41.33789,-15.72922 z"
     id="path266"
     style="fill:#cc0000" /><path
     fill="#212121"
     opacity="1"
     stroke="none"
     d="m 535.80933,446.76541 c 1.13031,-3.42264 1.55499,-7.11887 3.59661,-9.3049 6.24347,-6.68515 12.99665,-12.68707 20.92713,-17.70801 23.68713,-14.99658 49.42139,-21.4949 77.04303,-19.47403 30.83734,2.2562 57.40686,14.69959 79.18292,36.8653 4.82898,4.91531 4.81281,12.23022 0.29199,16.58319 -4.52002,4.35214 -11.10498,4.1897 -16.09509,-0.75186 -12.32153,-12.20172 -26.69904,-21.12137 -43.34552,-25.73239 -38.35217,-10.62348 -72.29645,-2.19345 -101.49963,24.88983 -8.26819,7.66794 -17.4383,5.48919 -20.10144,-5.36713 z"
     id="path267"
     style="fill:#cc0000" /><path
     fill="#212121"
     opacity="1"
     stroke="none"
     d="m 662.31103,469.78683 c 5.67756,4.49473 11.37427,8.50687 16.2176,13.36908 3.84558,3.86063 3.22088,10.29245 -0.26862,14.1836 -3.49567,3.8981 -9.33783,4.95581 -14.14526,2.07309 -2.66407,-1.59751 -4.78846,-4.06711 -7.2967,-5.957 -17.48169,-13.17228 -44.73107,-12.05906 -61.13226,2.45065 -0.74768,0.6615 -1.43164,1.39746 -2.19891,2.03406 -5.06122,4.19925 -11.76001,4.08932 -15.79096,-0.23957 -4.01874,-4.31582 -4.057,-11.34909 0.55652,-15.78762 8.32208,-8.00641 17.20459,-14.78897 28.88025,-18.07578 15.87329,-4.46851 31.07971,-3.1962 46.32745,1.75992 2.96235,0.96289 5.67432,2.69598 8.85089,4.18957 z"
     id="path268"
     style="fill:#cc0000" /></g>










































</svg>
